# xmcd
#
# Track frame offsets:
#	150
#	17918
#	35873
#	55129
#	68921
#	86387
#	100768
#	116461
#	131272
#	148723
#	166669
#	182097
#	195968
#
# Disc length: 2845 seconds
#
# Revision: 2
# Processed by: cddbd v1.5.2PL0 Copyright (c) Steve Scherf et al.
# Submitted via: audiograbber 1.83.01
#
DISCID=a60b1b0d
DTITLE=Keith Urban - Fuse
DYEAR=2013
DGENRE=Country
TTITLE0=Somewhere In My Car
TTITLE1=Even The Stars Fall 4 U
TTITLE2=Cop Car
TTITLE3=Shame
TTITLE4=Good Thing
TTITLE5=We Were Us (featuring Miranda Lambert)
TTITLE6=Love's Poster Child
TTITLE7=She's My 11
TTITLE8=Come Back To Me
TTITLE9=Red Camaro
TTITLE10=Little Bit Of Everything
TTITLE11=Raise 'Em Up (featuring Eric Church)
TTITLE12=Heart Like Mine
EXTD=
EXTT0=
EXTT1=
EXTT2=
EXTT3=
EXTT4=
EXTT5=
EXTT6=
EXTT7=
EXTT8=
EXTT9=
EXTT10=
EXTT11=
EXTT12=
PLAYORDER=
